<?xml version="1.0" encoding="UTF-8" standalone="no"?>
<svg width="90px" height="90px" viewBox="0 0 90 90" version="1.1" xmlns="http://www.w3.org/2000/svg" xmlns:xlink="http://www.w3.org/1999/xlink">
    <!-- Generator: Sketch 3.8.3 (29802) - http://www.bohemiancoding.com/sketch -->
    <title>Artboard 1 Copy</title>
    <desc>Created with Sketch.</desc>
    <defs></defs>
    <g id="Page-1" stroke="none" stroke-width="1" fill="none" fill-rule="evenodd">
        <g id="Artboard-1-Copy" fill="#FFFFFF">
            <path d="M90,90 L3.53197672e-15,90 L6.38953976e-16,25.597877 L45,0 L90,25.597877 L90,90 Z M80,82.3721444 L10,82.3721444 L10,31.5590953 L45,11 L80,31.5590953 L80,82.3721444 Z M80,52 C80,52 65.4222382,58.326848 49.4586972,59.3357851 C48.0755676,59.4232025 46.682035,59.4706982 45.2866798,59.4706982 C43.3855191,59.4706982 41.4809749,59.3825279 39.5962202,59.2253443 C24.1319911,57.9356688 10,52 10,52 L10,59.4706982 C10,59.4706982 27.5638751,68 45,68 C62.4361249,68 79.9999979,59.4706982 79.9999979,59.4706982 L80,52 Z M35,42 C37.7614237,42 40,39.7614237 40,37 C40,34.2385763 37.7614237,32 35,32 C32.2385763,32 30,34.2385763 30,37 C30,39.7614237 32.2385763,42 35,42 Z M57,42 C59.7614237,42 62,39.7614237 62,37 C62,34.2385763 59.7614237,32 57,32 C54.2385763,32 52,34.2385763 52,37 C52,39.7614237 54.2385763,42 57,42 Z" id="Combined-Shape"></path>
        </g>
    </g>
</svg>