<?xml version="1.0" encoding="UTF-8" standalone="no"?>
<svg width="187px" height="90px" viewBox="0 0 187 90" version="1.1" xmlns="http://www.w3.org/2000/svg" xmlns:xlink="http://www.w3.org/1999/xlink">
    <!-- Generator: Sketch 3.8.3 (29802) - http://www.bohemiancoding.com/sketch -->
    <title>Artboard 1</title>
    <desc>Created with Sketch.</desc>
    <defs></defs>
    <g id="Page-1" stroke="none" stroke-width="1" fill="none" fill-rule="evenodd">
        <g id="Artboard-1" fill="#FFFFFF">
            <path d="M115.872,70 L115.872,51.384 L122.606,51.384 C124.079341,51.384 125.344661,51.8693285 126.402,52.84 C127.459339,53.7933381 127.988,54.9979927 127.988,56.454 C127.988,58.2913425 127.147342,59.5826629 125.466,60.328 L125.466,60.432 C126.419338,60.7440016 127.181997,61.2856628 127.754,62.057 C128.326003,62.8283372 128.612,63.7079951 128.612,64.696 C128.612,66.221341 128.057339,67.4866616 126.948,68.492 C125.873328,69.4973384 124.547341,70 122.97,70 L115.872,70 Z M118.264,53.672 L118.264,59.366 L122.606,59.366 C123.455338,59.366 124.165997,59.0800029 124.738,58.508 C125.310003,57.9186637 125.596,57.2513371 125.596,56.506 C125.596,55.7779964 125.318669,55.1193363 124.764,54.53 C124.209331,53.9579971 123.524671,53.672 122.71,53.672 L118.264,53.672 Z M118.264,61.602 L118.264,67.712 L123.074,67.712 C123.940671,67.712 124.67733,67.4086697 125.284,66.802 C125.873336,66.1953303 126.168,65.4760042 126.168,64.644 C126.168,63.8293293 125.86467,63.1186697 125.258,62.512 C124.65133,61.9053303 123.888671,61.602 122.97,61.602 L118.264,61.602 Z M142.08,70 L139.792,70 L139.792,68.232 L139.688,68.232 C139.323998,68.8560031 138.765004,69.3759979 138.011,69.792 C137.256996,70.2080021 136.472671,70.416 135.658,70.416 C134.097992,70.416 132.897671,69.9696711 132.057,69.077 C131.216329,68.1843289 130.796,66.9146749 130.796,65.268 L130.796,57.26 L133.188,57.26 L133.188,65.112 C133.24,67.1920104 134.288656,68.232 136.334,68.232 C137.287338,68.232 138.084663,67.8463372 138.726,67.075 C139.367337,66.3036628 139.688,65.380672 139.688,64.306 L139.688,57.26 L142.08,57.26 L142.08,70 Z M150.712,68.232 C151.890673,68.232 152.852663,67.8073376 153.598,66.958 C154.378004,66.1086624 154.768,64.9993402 154.768,63.63 C154.768,62.2953267 154.378004,61.194671 153.598,60.328 C152.83533,59.461329 151.873339,59.028 150.712,59.028 C149.567994,59.028 148.606004,59.461329 147.826,60.328 C147.045996,61.194671 146.656,62.2953267 146.656,63.63 C146.656,64.9820068 147.045996,66.0826624 147.826,66.932 C148.606004,67.798671 149.567994,68.232 150.712,68.232 L150.712,68.232 Z M150.322,70.416 C148.657992,70.416 147.228006,69.7573399 146.032,68.44 C144.853327,67.1053267 144.264,65.5020094 144.264,63.63 C144.264,61.7579906 144.853327,60.1546733 146.032,58.82 C147.228006,57.5026601 148.657992,56.844 150.322,56.844 C151.258005,56.844 152.111663,57.0433313 152.883,57.442 C153.654337,57.8406687 154.247998,58.36933 154.664,59.028 L154.768,59.028 L154.664,57.26 L154.664,51.384 L157.056,51.384 L157.056,70 L154.768,70 L154.768,68.232 L154.664,68.232 C154.247998,68.89067 153.654337,69.4193313 152.883,69.818 C152.111663,70.2166687 151.258005,70.416 150.322,70.416 L150.322,70.416 Z M165.688,68.232 C166.866673,68.232 167.828663,67.8073376 168.574,66.958 C169.354004,66.1086624 169.744,64.9993402 169.744,63.63 C169.744,62.2953267 169.354004,61.194671 168.574,60.328 C167.81133,59.461329 166.849339,59.028 165.688,59.028 C164.543994,59.028 163.582004,59.461329 162.802,60.328 C162.021996,61.194671 161.632,62.2953267 161.632,63.63 C161.632,64.9820068 162.021996,66.0826624 162.802,66.932 C163.582004,67.798671 164.543994,68.232 165.688,68.232 L165.688,68.232 Z M165.298,70.416 C163.633992,70.416 162.204006,69.7573399 161.008,68.44 C159.829327,67.1053267 159.24,65.5020094 159.24,63.63 C159.24,61.7579906 159.829327,60.1546733 161.008,58.82 C162.204006,57.5026601 163.633992,56.844 165.298,56.844 C166.234005,56.844 167.087663,57.0433313 167.859,57.442 C168.630337,57.8406687 169.223998,58.36933 169.64,59.028 L169.744,59.028 L169.64,57.26 L169.64,51.384 L172.032,51.384 L172.032,70 L169.744,70 L169.744,68.232 L169.64,68.232 C169.223998,68.89067 168.630337,69.4193313 167.859,69.818 C167.087663,70.2166687 166.234005,70.416 165.298,70.416 L165.298,70.416 Z M186.332,57.26 L178.35,75.616 L175.88,75.616 L178.844,69.194 L173.592,57.26 L176.192,57.26 L179.988,66.412 L180.04,66.412 L183.732,57.26 L186.332,57.26 Z" id="Buddy"></path>
            <path d="M32.025,62.775 C32.025,65.2750125 31.2833408,67.2666593 29.8,68.75 C28.133325,70.5166755 25.9416803,71.4 23.225,71.4 C20.624987,71.4 18.425009,70.500009 16.625,68.7 C14.824991,66.899991 13.925,64.6833465 13.925,62.05 C13.925,59.4166535 14.824991,57.200009 16.625,55.4 C18.425009,53.599991 20.624987,52.7 23.225,52.7 C24.5416733,52.7 25.7833275,52.933331 26.95,53.4 C28.1166725,53.866669 29.0749963,54.5249958 29.825,55.375 L28.175,57.025 C27.6249972,56.35833 26.9125044,55.8375019 26.0375,55.4625 C25.1624956,55.0874981 24.225005,54.9 23.225,54.9 C21.2749903,54.9 19.6250068,55.5749932 18.275,56.925 C16.94166,58.2916735 16.275,59.9999897 16.275,62.05 C16.275,64.1000102 16.94166,65.8083265 18.275,67.175 C19.6250068,68.5250068 21.2749903,69.2 23.225,69.2 C25.0083422,69.2 26.4916608,68.700005 27.675,67.7 C28.8583393,66.699995 29.5416657,65.3250087 29.725,63.575 L23.225,63.575 L23.225,61.425 L31.9,61.425 C31.9833338,61.891669 32.025,62.3416645 32.025,62.775 L32.025,62.775 Z M36.1,67.25 C36.1,67.850003 36.3541641,68.349998 36.8625,68.75 C37.3708359,69.150002 37.9666633,69.35 38.65,69.35 C39.6166715,69.35 40.4791629,68.9916702 41.2375,68.275 C41.9958371,67.5583297 42.375,66.7166715 42.375,65.75 C41.6583298,65.1833305 40.6583398,64.9 39.375,64.9 C38.441662,64.9 37.6625031,65.1249978 37.0375,65.575 C36.4124969,66.0250023 36.1,66.58333 36.1,67.25 L36.1,67.25 Z M39.075,58.35 C40.7750085,58.35 42.1166617,58.8041621 43.1,59.7125 C44.0833382,60.6208379 44.575,61.8666587 44.575,63.45 L44.575,71 L42.375,71 L42.375,69.3 L42.275,69.3 C41.3249953,70.700007 40.0583412,71.4 38.475,71.4 C37.1249933,71.4 35.9958379,71.000004 35.0875,70.2 C34.1791621,69.399996 33.725,68.400006 33.725,67.2 C33.725,65.933327 34.2041619,64.9250038 35.1625,64.175 C36.1208381,63.4249962 37.399992,63.05 39,63.05 C40.3666735,63.05 41.4916623,63.2999975 42.375,63.8 L42.375,63.275 C42.375,62.474996 42.0583365,61.7958361 41.425,61.2375 C40.7916635,60.6791639 40.0500043,60.4 39.2,60.4 C37.9166603,60.4 36.9000038,60.9416612 36.15,62.025 L34.125,60.75 C35.2416723,59.149992 36.8916558,58.35 39.075,58.35 L39.075,58.35 Z M49.475,71 L47.175,71 L47.175,58.75 L49.375,58.75 L49.375,60.75 L49.475,60.75 C49.7083345,60.0999968 50.1874964,59.5458356 50.9125,59.0875 C51.6375036,58.6291644 52.3499965,58.4 53.05,58.4 C53.71667,58.4 54.283331,58.499999 54.75,58.7 L54.05,60.925 C53.7666653,60.8083327 53.3166698,60.75 52.7,60.75 C51.833329,60.75 51.0791699,61.0999965 50.4375,61.8 C49.7958301,62.5000035 49.475,63.316662 49.475,64.25 L49.475,71 Z M57.925,67.25 C57.925,67.850003 58.1791641,68.349998 58.6875,68.75 C59.1958359,69.150002 59.7916632,69.35 60.475,69.35 C61.4416715,69.35 62.3041629,68.9916702 63.0625,68.275 C63.8208371,67.5583297 64.2,66.7166715 64.2,65.75 C63.4833298,65.1833305 62.4833397,64.9 61.2,64.9 C60.266662,64.9 59.4875031,65.1249978 58.8625,65.575 C58.2374969,66.0250023 57.925,66.58333 57.925,67.25 L57.925,67.25 Z M60.9,58.35 C62.6000085,58.35 63.9416618,58.8041621 64.925,59.7125 C65.9083382,60.6208379 66.4,61.8666587 66.4,63.45 L66.4,71 L64.2,71 L64.2,69.3 L64.1,69.3 C63.1499953,70.700007 61.8833413,71.4 60.3,71.4 C58.9499933,71.4 57.8208379,71.000004 56.9125,70.2 C56.0041621,69.399996 55.55,68.400006 55.55,67.2 C55.55,65.933327 56.0291619,64.9250038 56.9875,64.175 C57.9458381,63.4249962 59.224992,63.05 60.825,63.05 C62.1916735,63.05 63.3166623,63.2999975 64.2,63.8 L64.2,63.275 C64.2,62.474996 63.8833365,61.7958361 63.25,61.2375 C62.6166635,60.6791639 61.8750043,60.4 61.025,60.4 C59.7416603,60.4 58.7250037,60.9416612 57.975,62.025 L55.95,60.75 C57.0666723,59.149992 58.7166558,58.35 60.9,58.35 L60.9,58.35 Z M74.5,69.3 C75.633339,69.3 76.5583298,68.8916708 77.275,68.075 C78.0250038,67.2583293 78.4,66.1916733 78.4,64.875 C78.4,63.5916603 78.0250038,62.5333375 77.275,61.7 C76.541663,60.8666625 75.6166723,60.45 74.5,60.45 C73.3999945,60.45 72.4750038,60.8666625 71.725,61.7 C70.9749963,62.5333375 70.6,63.5916603 70.6,64.875 C70.6,66.1750065 70.9749963,67.2333292 71.725,68.05 C72.4750038,68.8833375 73.3999945,69.3 74.5,69.3 L74.5,69.3 Z M74.425,76.8 C73.7416633,76.8 73.100003,76.7125009 72.5,76.5375 C71.899997,76.3624991 71.3541691,76.1166683 70.8625,75.8 C70.3708309,75.4833318 69.9500018,75.1083355 69.6,74.675 C69.2499983,74.2416645 68.9833343,73.758336 68.8,73.225 L70.975,72.325 C71.2250013,73.0416702 71.6583303,73.6166645 72.275,74.05 C72.8916698,74.4833355 73.6083293,74.7 74.425,74.7 C75.6750063,74.7 76.6499965,74.3250038 77.35,73.575 C78.0500035,72.8249962 78.4,71.7916733 78.4,70.475 L78.4,69.3 L78.3,69.3 C77.8666645,69.9500033 77.2791704,70.4624981 76.5375,70.8375 C75.7958296,71.2125019 74.991671,71.4 74.125,71.4 C72.524992,71.4 71.1500058,70.7750063 70,69.525 C68.866661,68.2416602 68.3,66.6916758 68.3,64.875 C68.3,63.0583242 68.866661,61.516673 70,60.25 C71.1500058,58.983327 72.524992,58.35 74.125,58.35 C74.991671,58.35 75.7958296,58.5374981 76.5375,58.9125 C77.2791704,59.2875019 77.8666645,59.7999968 78.3,60.45 L78.4,60.45 L78.4,58.75 L80.6,58.75 L80.6,70.475 C80.6,72.4416765 80.0416723,73.9833278 78.925,75.1 C77.791661,76.233339 76.291676,76.8 74.425,76.8 L74.425,76.8 Z M88.9,71.4 C87.099991,71.4 85.6166725,70.7833395 84.45,69.55 C83.2833275,68.3166605 82.7,66.7583427 82.7,64.875 C82.7,63.008324 83.266661,61.4541729 84.4,60.2125 C85.533339,58.9708271 86.9833245,58.35 88.75,58.35 C90.5666758,58.35 92.0124946,58.9374941 93.0875,60.1125 C94.1625054,61.2875059 94.7,62.9333228 94.7,65.05 L94.675,65.3 L85.05,65.3 C85.0833335,66.500006 85.4833295,67.466663 86.25,68.2 C87.0166705,68.933337 87.933328,69.3 89,69.3 C90.466674,69.3 91.6166625,68.566674 92.45,67.1 L94.5,68.1 C93.9499973,69.1333385 93.1875049,69.9416638 92.2125,70.525 C91.2374951,71.1083363 90.1333395,71.4 88.9,71.4 L88.9,71.4 Z M85.225,63.4 L92.25,63.4 C92.183333,62.5499958 91.8375031,61.8458361 91.2125,61.2875 C90.5874969,60.7291639 89.7500053,60.45 88.7,60.45 C87.833329,60.45 87.0875031,60.716664 86.4625,61.25 C85.8374969,61.783336 85.425001,62.4999955 85.225,63.4 L85.225,63.4 Z" id="Garage"></path>
            <path d="M9.1651664,39.0397395 L9.1651664,82.3721444 L100.500666,82.3721444 L100.500666,39.3475915 C94.9948232,40.5858862 75.1861257,44.7085037 55.5,44.7085037 C33.4694374,44.7085037 11.2853677,39.5454849 9.1651664,39.0397395 Z M9.1651664,34.03438 L9.1651664,31.5590953 L54.8329154,10.3108122 L100.500666,31.5590953 L100.500666,34.31008 C95.5669623,35.2989109 79.1374908,38.3457165 61.4236977,38.9097052 C59.5861113,38.968212 57.7347037,39 55.8808746,39 C53.3550468,39 50.8247238,38.9409892 48.3206926,38.8357892 C28.8971942,38.0197641 11.0556549,34.4245637 9.1651664,34.03438 Z M110.032178,82.1603045 L186.998291,82.1603012 L186.998291,90.3916626 L110.032178,90.391665 L-6.04030449e-15,90.391665 L-8.93332723e-15,25.597877 L55.0160882,0 L110.032178,25.597877 L110.032178,82.1603045 Z M44,32 C46.7614237,32 49,29.7614237 49,27 C49,24.2385763 46.7614237,22 44,22 C41.2385763,22 39,24.2385763 39,27 C39,29.7614237 41.2385763,32 44,32 Z M66,32 C68.7614237,32 71,29.7614237 71,27 C71,24.2385763 68.7614237,22 66,22 C63.2385763,22 61,24.2385763 61,27 C61,29.7614237 63.2385763,32 66,32 Z" id="Combined-Shape"></path>
        </g>
    </g>
</svg>